<?xml version="1.0" encoding="UTF-8" standalone="no"?><svg xmlns="http://www.w3.org/2000/svg" xmlns:xlink="http://www.w3.org/1999/xlink" contentScriptType="application/ecmascript" contentStyleType="text/css" height="362px" preserveAspectRatio="none" style="width:250px;height:362px;background:#FFFFFF;" version="1.1" viewBox="0 0 250 362" width="250px" zoomAndPan="magnify"><defs><filter height="300%" id="f1cn9k4yi1t57c" width="300%" x="-1" y="-1"><feGaussianBlur result="blurOut" stdDeviation="2.0"/><feColorMatrix in="blurOut" result="blurOut2" type="matrix" values="0 0 0 0 0 0 0 0 0 0 0 0 0 0 0 0 0 0 .4 0"/><feOffset dx="4.0" dy="4.0" in="blurOut2" result="blurOut3"/><feBlend in="SourceGraphic" in2="blurOut3" mode="normal"/></filter></defs><g><ellipse cx="108.5" cy="16" fill="#000000" filter="url(#f1cn9k4yi1t57c)" rx="10" ry="10" style="stroke:none;stroke-width:1.0;"/><rect fill="#FEFECE" filter="url(#f1cn9k4yi1t57c)" height="33.9688" rx="12.5" ry="12.5" style="stroke:#A80036;stroke-width:1.5;" width="93" x="62" y="67"/><text fill="#000000" font-family="sans-serif" font-size="12" lengthAdjust="spacing" textLength="73" x="72" y="88.1387">Initialization</text><polygon fill="#FEFECE" filter="url(#f1cn9k4yi1t57c)" points="108.5,142,120.5,154,108.5,166,96.5,154,108.5,142" style="stroke:#A80036;stroke-width:1.5;"/><rect fill="#FEFECE" filter="url(#f1cn9k4yi1t57c)" height="33.9688" rx="12.5" ry="12.5" style="stroke:#A80036;stroke-width:1.5;" width="102" x="12.5" y="240"/><text fill="#000000" font-family="sans-serif" font-size="12" lengthAdjust="spacing" textLength="82" x="22.5" y="261.1387">Some Activity</text><rect fill="#FEFECE" filter="url(#f1cn9k4yi1t57c)" height="33.9688" rx="12.5" ry="12.5" style="stroke:#A80036;stroke-width:1.5;" width="117" x="7" y="315"/><text fill="#000000" font-family="sans-serif" font-size="12" lengthAdjust="spacing" textLength="97" x="17" y="336.1387">Another activity</text><ellipse cx="154.5" cy="332" fill="none" filter="url(#f1cn9k4yi1t57c)" rx="10" ry="10" style="stroke:#000000;stroke-width:1.0;"/><ellipse cx="155" cy="332.5" fill="#000000" rx="6" ry="6" style="stroke:none;stroke-width:1.0;"/><rect fill="#FEFECE" filter="url(#f1cn9k4yi1t57c)" height="33.9688" rx="12.5" ry="12.5" style="stroke:#A80036;stroke-width:1.5;" width="117" x="95" y="186"/><text fill="#000000" font-family="sans-serif" font-size="12" lengthAdjust="spacing" textLength="97" x="105" y="207.1387">Something else</text><!--MD5=[0f23ef6eb4b1b6c14a21cac5fe254886]
link start to Initialization--><path d="M108.5,26.18 C108.5,35.27 108.5,49.53 108.5,61.49 " fill="none" id="start-to-Initialization" style="stroke:#A80036;stroke-width:1.0;"/><polygon fill="#A80036" points="108.5,66.79,112.5,57.79,108.5,61.79,104.5,57.79,108.5,66.79" style="stroke:#A80036;stroke-width:1.0;"/><!--MD5=[f970159557ceffc4559f9ee4f3f46fdb]
link Initialization to #5--><path d="M108.5,101.12 C108.5,111.92 108.5,126.08 108.5,136.88 " fill="none" id="Initialization-to-#5" style="stroke:#A80036;stroke-width:1.0;"/><polygon fill="#A80036" points="108.5,141.89,112.5,132.89,108.5,136.89,104.5,132.89,108.5,141.89" style="stroke:#A80036;stroke-width:1.0;"/><text fill="#000000" font-family="sans-serif" font-size="11" lengthAdjust="spacing" textLength="62" x="31.3875" y="131.468">Some Test</text><!--MD5=[4ed0b6951f0c4ed119b5825e34e72fa8]
link #5 to Some Activity--><path d="M99.64,157.64 C88,161.65 68.05,170.48 59.5,186 C51.34,200.81 53.22,220.17 56.64,234.77 " fill="none" id="#5-to-Some Activity" style="stroke:#A80036;stroke-width:1.0;"/><polygon fill="#A80036" points="57.95,239.92,59.6141,230.2127,56.7205,235.0735,51.8597,232.1799,57.95,239.92" style="stroke:#A80036;stroke-width:1.0;"/><text fill="#000000" font-family="sans-serif" font-size="11" lengthAdjust="spacing" textLength="23" x="60.5" y="207.2104">true</text><!--MD5=[97e0d588043c3fbfd2b2e59d052c508a]
link Some Activity to Another activity--><path d="M63.94,274.2 C64.23,284.69 64.61,298.46 64.92,309.82 " fill="none" id="Some Activity-to-Another activity" style="stroke:#A80036;stroke-width:1.0;"/><polygon fill="#A80036" points="65.06,314.84,68.8273,305.7402,64.9315,309.8417,60.83,305.9458,65.06,314.84" style="stroke:#A80036;stroke-width:1.0;"/><!--MD5=[14518ea1a79a02d11bb86953a1b562de]
link Another activity to end--><path d="M124.25,332 C129.11,332 133.97,332 138.83,332 " fill="none" id="Another activity-to-end" style="stroke:#A80036;stroke-width:1.0;"/><polygon fill="#A80036" points="144.1,332,135.1,328,139.1,332,135.1,336,144.1,332" style="stroke:#A80036;stroke-width:1.0;"/><!--MD5=[d73beba7fcb51f91ef1c24c353dc0a65]
link #5 to Something else--><path d="M114.02,160.76 C119.1,166.07 126.95,174.27 134.31,181.96 " fill="none" id="#5-to-Something else" style="stroke:#A80036;stroke-width:1.0;"/><polygon fill="#A80036" points="137.87,185.68,134.5396,176.4113,134.4139,182.0668,128.7584,181.9411,137.87,185.68" style="stroke:#A80036;stroke-width:1.0;"/><text fill="#000000" font-family="sans-serif" font-size="11" lengthAdjust="spacing" textLength="28" x="126.65" y="170.1304">false</text><!--MD5=[6008a548d6e19d71c4fdb729e150d919]
link Something else to end--><path d="M153.63,220.08 C153.82,245.05 154.2,292.73 154.39,316.61 " fill="none" id="Something else-to-end" style="stroke:#A80036;stroke-width:1.0;"/><polygon fill="#A80036" points="154.43,321.88,158.3527,312.846,154.3871,316.8802,150.353,312.9146,154.43,321.88" style="stroke:#A80036;stroke-width:1.0;"/><text fill="#000000" font-family="sans-serif" font-size="11" lengthAdjust="spacing" textLength="88" x="154.5" y="261.2104">Ending process</text><!--MD5=[4885bbd0a7f4de0c0ba4708a95525fe5]
@startuml
(*) - -> "Initialization"

if "Some Test" then
- ->[true] "Some Activity"
- -> "Another activity"
-right-> (*)
else
->[false] "Something else"
- ->[Ending process] (*)
endif
@enduml

PlantUML version 1.2022.1(Tue Feb 01 18:19:58 UTC 2022)
(GPL source distribution)
Java Runtime: OpenJDK Runtime Environment
JVM: OpenJDK 64-Bit Server VM
Default Encoding: UTF-8
Language: en
Country: null
--></g></svg>